<svg width="20" height="20" viewBox="0 0 20 20" fill="none" xmlns="http://www.w3.org/2000/svg">
<path fill-rule="evenodd" clip-rule="evenodd" d="M18.1989 4.29942C18.4828 4.59206 18.6844 4.95443 18.7834 5.34992C19.0477 6.8155 19.176 8.30238 19.1667 9.79158C19.172 11.2585 19.0437 12.7229 18.7834 14.1666C18.6844 14.5621 18.4828 14.9244 18.1989 15.2171C17.915 15.5097 17.559 15.7223 17.1667 15.8333C15.7334 16.2166 10 16.2166 10 16.2166C10 16.2166 4.2667 16.2166 2.83336 15.8333C2.44905 15.7281 2.09835 15.5256 1.81515 15.2453C1.53195 14.965 1.32583 14.6165 1.2167 14.2333C0.952335 12.7677 0.824012 11.2808 0.833362 9.79158C0.826059 8.31351 0.954374 6.83788 1.2167 5.38325C1.31569 4.98776 1.51729 4.62539 1.80115 4.33276C2.08501 4.04012 2.44107 3.82757 2.83336 3.71659C4.2667 3.33325 10 3.33325 10 3.33325C10 3.33325 15.7334 3.33325 17.1667 3.68325C17.559 3.79424 17.915 4.00679 18.1989 4.29942ZM12.9167 9.79165L8.125 12.5167V7.06665L12.9167 9.79165Z" fill="#F2F2F2"/>
</svg>
