<svg width="124" height="38" viewBox="0 0 124 38" fill="none" xmlns="http://www.w3.org/2000/svg">
<path d="M94.5558 27.0054C94.4474 27.3051 94.3318 27.5995 94.2053 27.8975C94.33 27.5995 94.4474 27.3087 94.5558 27.0054Z" fill="#21BF48"/>
<path d="M95.5512 22.821C95.5151 23.1404 95.4681 23.4563 95.4121 23.7721C95.4663 23.4563 95.5132 23.1404 95.5512 22.821Z" fill="#21BF48"/>
<path d="M95.6859 19.8144C95.6859 19.5075 95.661 19.2024 95.6379 18.8955C95.6628 19.1935 95.6788 19.4986 95.6859 19.8144Z" fill="#21BF48"/>
<path d="M95.6904 20.9012C95.6904 20.6389 95.6904 20.3748 95.6904 20.1125C95.6993 20.3748 95.6975 20.6371 95.6904 20.9012Z" fill="#21BF48"/>
<path d="M124 8.34129V23.2956C124 30.9289 116.969 37.3757 108.645 37.3757C103.095 37.3757 98.1218 34.494 95.4337 30.3044C97.3016 26.8607 98.1326 22.7496 97.7821 18.5672C97.4299 14.3348 95.8907 10.3986 93.4194 7.35813C93.6531 6.1103 94.3215 4.98256 95.3087 4.17043C96.2959 3.35829 97.5397 2.91296 98.8245 2.91163C100.282 2.91352 101.679 3.48623 102.709 4.50414C103.739 5.52204 104.318 6.902 104.32 8.34129V23.2956C104.32 24.7873 106.208 26.5199 108.643 26.5199C110.843 26.5199 113.002 24.9229 113.002 23.2956V8.34129C113.003 7.62741 113.146 6.92065 113.423 6.26139C113.7 5.60214 114.106 5.0033 114.618 4.49908C115.13 3.99487 115.737 3.59516 116.405 3.32278C117.073 3.0504 117.789 2.91069 118.512 2.91163C119.968 2.9154 121.363 3.48895 122.391 4.50665C123.42 5.52435 123.998 6.90323 124 8.34129V8.34129Z" fill="#21BF48"/>
<path d="M28.5481 11.125C27.1079 13.9183 26.3611 17.01 26.3694 20.1447C26.3644 24.1714 27.5979 28.1046 29.9066 31.4234V31.7267C29.9051 33.1663 29.3255 34.5465 28.2949 35.5645C27.2643 36.5824 25.8669 37.155 24.4094 37.1564C22.9522 37.1545 21.5553 36.5818 20.525 35.5639C19.4948 34.546 18.9154 33.166 18.914 31.7267V25.5726H10.9961V31.7267C10.9952 33.1661 10.4159 34.5464 9.38561 35.5644C8.35529 36.5824 6.95808 37.155 5.50074 37.1564C4.04355 37.1545 2.64662 36.5818 1.6164 35.5639C0.586182 34.546 0.00680502 33.166 0.00537109 31.7267V8.56094C0.00728301 7.12195 0.586874 5.74245 1.61704 4.72493C2.64721 3.70742 4.04387 3.13495 5.50074 3.13306C6.95777 3.13447 8.3547 3.70679 9.38497 4.72441C10.4152 5.74203 10.9947 7.12181 10.9961 8.56094V14.715H18.914V8.56094C18.9159 7.12195 19.4955 5.74245 20.5257 4.72493C21.5558 3.70742 22.9525 3.13495 24.4094 3.13306C25.8666 3.13447 27.2637 3.70674 28.2943 4.7243C29.3248 5.74187 29.9047 7.12165 29.9066 8.56094V8.86963C29.4039 9.59102 28.9501 10.3445 28.5481 11.125V11.125Z" fill="#21BF48"/>
<path d="M77.4267 13.9424C77.1828 13.9424 76.9353 13.9424 76.686 13.9424C76.9986 13.9424 77.3075 13.9424 77.611 13.9424H77.4267ZM86.2135 36.0286C86.4502 35.9269 86.6832 35.8216 86.9108 35.7092C86.6832 35.8199 86.4502 35.9269 86.2135 36.0286ZM94.2055 27.8904C94.3319 27.5995 94.4475 27.3051 94.5559 26.9982C94.4475 27.3087 94.3301 27.5995 94.2055 27.8904V27.8904ZM95.4122 23.7722C95.4682 23.4563 95.5152 23.1405 95.5513 22.8211C95.5134 23.1405 95.4664 23.4563 95.4122 23.7722V23.7722ZM95.638 18.8867C95.6615 19.1936 95.6778 19.4987 95.6868 19.8056C95.6796 19.4987 95.6633 19.1936 95.638 18.8867V18.8867ZM95.694 20.1125C95.694 20.3748 95.694 20.6389 95.694 20.9012C95.6976 20.6371 95.6994 20.3748 95.694 20.1125V20.1125Z" fill="#21BF48"/>
<path d="M95.694 20.1126C95.6631 16.9361 94.845 13.8154 93.3112 11.0233C92.9172 10.3228 92.4735 9.65085 91.9834 9.01233C91.7829 8.75539 91.5787 8.5038 91.3638 8.25935C90.4019 7.1565 89.2799 6.20044 88.0344 5.4223C87.6672 5.19192 87.2886 4.97991 86.8999 4.78708C86.5549 4.60865 86.199 4.45163 85.8395 4.30353C84.1565 3.62995 82.3696 3.24438 80.5555 3.16335C78.5575 3.13302 76.3825 3.15086 74.3339 3.11517C72.0776 3.13301 69.7869 3.01882 67.5523 3.30788C64.978 3.92704 63.2275 6.40902 63.4208 9.01769C68.0147 15.4769 67.9244 24.9445 63.4208 31.2806C63.3621 32.2444 63.5485 33.2074 63.9628 34.082C64.4118 35.0031 65.1148 35.7804 65.991 36.3245C66.8673 36.8687 67.8812 37.1576 68.9162 37.1581H73.3006C79.2331 37.1581 82.1524 37.2206 83.6898 36.878C86.6612 36.1726 89.3451 34.5913 91.3855 32.344C91.5661 32.1513 91.7323 31.9533 91.8967 31.7499C92.0611 31.5465 92.193 31.3752 92.3375 31.1842C94.6769 28.0028 95.75 24.0202 95.694 20.1126ZM84.8152 20.7067C84.7068 21.8701 84.4539 23.0531 83.8108 24.0452C83.6086 24.3621 83.3657 24.6517 83.0882 24.907C82.5465 25.3835 81.904 25.7346 81.2076 25.9348C78.9892 26.5736 76.7022 26.2916 74.4079 26.3059V13.9941C75.1685 13.9941 75.9344 13.9638 76.6932 13.9531C79.6089 13.8782 83.1875 14.037 84.313 17.2309C84.7221 18.3427 84.8931 19.5263 84.8152 20.7067Z" fill="#21BF48"/>
<path d="M56.7496 0.51709C56.8015 0.581881 56.8475 0.651159 56.8869 0.724077C56.8477 0.651027 56.8017 0.581729 56.7496 0.51709V0.51709ZM36.2241 0.959607C36.2469 0.877704 36.2777 0.798212 36.3163 0.72229C36.277 0.797875 36.2461 0.877447 36.2241 0.959607V0.959607Z" fill="#21BF48"/>
<path d="M63.4136 13.5694C62.1935 10.5453 60.1634 7.90598 57.5407 5.93437C57.5551 5.83801 57.0457 1.31478 57.0439 1.21664C57.0078 0.884293 56.8485 0.576867 56.5967 0.353532C56.3449 0.130197 56.0184 0.00672613 55.68 0.00687345C55.0495 -0.155499 51.7761 2.61019 51.2378 2.8814C48.204 2.09274 45.0151 2.09274 41.9813 2.8814C41.4177 2.59413 38.1876 -0.141225 37.5391 0.00687345C37.2007 0.00746825 36.8744 0.131152 36.6225 0.354305C36.3706 0.577458 36.2107 0.884449 36.1734 1.21664C36.1734 1.31657 35.6694 5.83266 35.6766 5.93259C22.0664 16.0372 29.3123 37.9967 46.6132 37.9967C59.1936 38.2412 68.2026 24.7946 63.4136 13.5694ZM46.6132 27.1302C37.3277 26.9679 37.2988 13.3446 46.577 13.1412C55.9004 13.2715 55.9347 26.9714 46.6132 27.1392V27.1302Z" fill="#21BF48"/>
</svg>
